<?xml version="1.0" standalone="no"?>
<!DOCTYPE svg PUBLIC "-//W3C//DTD SVG 20010904//EN" "http://www.w3.org/TR/2001/REC-SVG-20010904/DTD/svg10.dtd">
<!-- Created using Krita: https://krita.org -->
<svg xmlns="http://www.w3.org/2000/svg" 
    xmlns:xlink="http://www.w3.org/1999/xlink"
    xmlns:krita="http://krita.org/namespaces/svg/krita"
    xmlns:sodipodi="http://sodipodi.sourceforge.net/DTD/sodipodi-0.dtd"
    width="595.2pt"
    height="841.92pt"
    viewBox="0 0 595.2 841.92">
<defs/>
<path id="shape0" transform="matrix(4.82064042132547 0 0 4.82064042132547 44.7183066053105 10.8970988940188)" fill="#d0b44e" fill-rule="evenodd" stroke="#0d254b" stroke-width="2.4" stroke-linecap="square" stroke-linejoin="bevel" d="M52.1363 138.823C32.6327 130.01 1.39234 105.746 0.151446 70.8219C-0.335608 57.1141 0.481382 13.6605 0.786439 13.8399C29.511 14.0654 39.2728 9.89934 52.1363 0C65.1597 9.90089 75.0383 13.9811 104.12 13.7556C104.429 13.5762 105.256 57.0365 104.763 70.7465C103.507 105.676 71.8824 130.008 52.1363 138.823Z"/><path id="shape0" transform="matrix(4.82064023441516 0 0 4.82064023441516 79.0271903680039 58.7632661195624)" fill="#0d254b" stroke="#002153" stroke-width="2.4" stroke-linecap="square" stroke-linejoin="bevel" d="M45.0629 119.989C28.2054 112.371 1.20344 91.3992 0.130899 61.2133C-0.290075 49.3653 0.416072 11.8072 0.679741 11.9622C25.5072 12.1571 33.9446 8.55627 45.0629 0C56.3193 8.55761 64.8577 12.0843 89.9938 11.8893C90.2609 11.7343 90.9757 49.2982 90.5496 61.1482C89.464 91.3387 62.13 112.37 45.0629 119.989Z"/><path id="shape1" transform="matrix(4.82064042132547 0 0 4.82064042132547 235.034312410165 390.792626120826)" fill="#f8f0da" fill-rule="evenodd" stroke="#f8f0da" stroke-width="1.2" stroke-linecap="square" stroke-linejoin="bevel" d="M7.88258 0.208176L9.12076 0.110211L19.6747 0L20.1237 0.975572L19.1214 2.42464L19.0715 13.1634L27.2806 28.512L27.6072 32.1857L26.0561 34.7491L23.3756 35.3247L3.12038 34.5859L0.403654 32.7327L0 29.7937L2.39924 25.1363L9.25682 13.1634L9.02098 1.69398Z"/><text id="shape2" krita:useRichText="true" transform="matrix(4.82064042132547 0 0 4.82064042132547 60.6730555425116 819.011466044798)" fill="#0f224a" stroke="#000000" stroke-opacity="0" stroke-width="0" stroke-linecap="square" stroke-linejoin="bevel" font-family="Times New Roman" font-size="24" font-size-adjust="0.404237" font-stretch="normal" letter-spacing="0" text-anchor="middle" word-spacing="0"><tspan x="49.796875">OSSCE</tspan></text><path id="shape3" transform="matrix(4.82064042132547 0 0 4.82064042132547 246.709523932629 505.550772636016)" fill="#d0b44e" fill-rule="evenodd" stroke="#d0b44e" stroke-width="1.2" stroke-linecap="square" stroke-linejoin="bevel" d="M2.82104 0.632693L0 4.54723L0.195024 7.66579L2.23143 8.93526L21.4254 8.48217L23.2214 6.63307L22.4186 3.13081L19.8879 0Z"/><path id="shape4" transform="matrix(4.82064042132547 0 0 4.82064042132547 244.259916387605 454.248484820148)" fill="none" stroke="#0a0a00" stroke-width="1.2" stroke-linecap="square" stroke-linejoin="miter" stroke-miterlimit="2" d="M9.12094 0L0.678386 14.6229C0.48581 15.5264 -0.148465 16.8132 0.0319293 17.6345C0.177502 18.2972 1.07644 19.026 1.8461 19.6428L22.3839 19.6428"/><path id="shape5" transform="matrix(4.82064042132547 0 0 4.82064042132547 232.908873880544 454.248484820148)" fill="none" stroke="#0a0a00" stroke-width="1.2" stroke-linecap="square" stroke-linejoin="miter" stroke-miterlimit="2" d="M8.99473 0L0.852892 14.1021C0.600036 15.2487 -0.0911463 16.8211 0.0100376 17.9406C0.0932062 18.8609 0.671009 20.1988 1.25728 20.9204C1.74087 21.5156 2.79389 21.9776 3.95586 22.4389L24.9916 22.4389"/><path id="shape6" transform="matrix(4.82064042132547 0 0 4.82064042132547 267.358656261067 386.992927640958)" fill="none" stroke="#0a0a00" stroke-width="1.2" stroke-linecap="square" stroke-linejoin="miter" stroke-miterlimit="2" d="M2.00716 13.2874L2.00716 2.66588C1.40168 2.29606 0.0702125 1.88326 0.00250104 1.43315C-0.0512774 1.07567 0.775094 0.241609 1.24067 0.0371467C1.47156 -0.0642494 1.89069 0.0766055 2.1659 0.0534743C2.19884 0.050706 2.25558 0.0179932 2.28382 0.028983C2.96658 0.294678 3.47438 1.68337 4.3293 2.72303L4.3293 13.7325"/><path id="shape01" transform="matrix(-4.40611212820261 0 0 4.82064024015259 359.492737340161 453.8128377112)" fill="none" stroke="#0a0a00" stroke-width="1.2" stroke-linecap="square" stroke-linejoin="miter" stroke-miterlimit="2" d="M9.12094 0L0.678386 14.6229C0.48581 15.5264 -0.148465 16.8132 0.0319292 17.6345C0.177502 18.2972 1.07644 19.026 1.8461 19.6428L22.3839 19.6428"/><path id="shape1" transform="matrix(-4.40611212820261 0 0 4.82064024015259 369.867700910235 453.8128377112)" fill="none" stroke="#0a0a00" stroke-width="1.2" stroke-linecap="square" stroke-linejoin="miter" stroke-miterlimit="2" d="M8.99473 0L0.852892 14.1021C0.600036 15.2487 -0.0911463 16.8211 0.0100376 17.9406C0.0932062 18.8609 0.671009 20.1988 1.25728 20.9204C1.74087 21.5156 2.79389 21.9776 3.95586 22.4389L24.9916 22.4389"/><path id="shape2" transform="matrix(-4.40611212820261 0 0 4.82064024015259 338.3802654098 386.55728292483)" fill="none" stroke="#0a0a00" stroke-width="1.2" stroke-linecap="square" stroke-linejoin="miter" stroke-miterlimit="2" d="M2.00716 13.2874L2.00716 2.66588C1.40168 2.29606 0.0702125 1.88326 0.00250104 1.43315C-0.0512774 1.07567 0.775094 0.241609 1.24067 0.0371467C1.47156 -0.0642494 1.89069 0.0766055 2.1659 0.0534743C2.19884 0.050706 2.25558 0.0179932 2.28382 0.028983C2.96658 0.294678 3.47438 1.68337 4.3293 2.72303L4.3293 13.7325"/><path id="shape7" transform="matrix(4.82064042132547 0 0 4.82064042132547 309.217819330992 470.938361847226)" fill="none" stroke="#0a0a00" stroke-width="1.2" stroke-linecap="square" stroke-linejoin="miter" stroke-miterlimit="2" d="M0 0L5.58312 11.8089"/><path id="shape8" transform="matrix(4.82064042132547 0 0 4.82064042132547 259.543511130544 503.91755484439)" fill="none" stroke="#0a0a00" stroke-width="1.2" stroke-linecap="square" stroke-linejoin="miter" stroke-miterlimit="2" d="M0 0L17.317 0"/><rect id="shape9" transform="matrix(4.82064042132547 0 0 4.82064042132547 150.666879958 178.893503954038)" fill="#d0b44e" fill-rule="evenodd" stroke="#d0b44e" stroke-width="0.5088" stroke-linecap="square" stroke-linejoin="bevel" width="2.63999999999999" height="38.16"/><rect id="shape10" transform="matrix(4.82064042132547 0 0 4.82064042132547 158.765555865826 347.808744317282)" fill="#d0b44e" fill-rule="evenodd" stroke="#d0b44e" stroke-width="0.5088" stroke-linecap="square" stroke-linejoin="bevel" width="59.52" height="3.11999999999995"/><rect id="shape11" transform="matrix(4.82064042132547 0 0 4.82064042132547 436.434444134174 177.736550252919)" fill="#d0b44e" fill-rule="evenodd" stroke="#d0b44e" stroke-width="0.5088" stroke-linecap="square" stroke-linejoin="bevel" width="1.92000000000002" height="37.2"/><rect id="shape12" transform="matrix(4.82064042132547 0 0 4.82064042132547 288.344370391055 360.535235029581)" fill="#d0b44e" fill-rule="evenodd" stroke="#d0b44e" stroke-width="0.5088" stroke-linecap="square" stroke-linejoin="bevel" width="3.59999999999997" height="2.39999999999998"/><path id="shape13" transform="matrix(4.82064042132547 0 0 4.82064042132547 165.654019482506 147.86316049715)" fill="#f1e3c6" fill-rule="evenodd" stroke="#d0b44e" stroke-width="0.5088" stroke-linecap="square" stroke-linejoin="bevel" d="M0 6.32107L0.532368 40.9166L55.3631 41.2255L55.1642 5.44074L53.1277 5.54176L52.9449 3.20671L45.2737 1.93962L39.2188 0.510881L33.7733 0.222248L30.0403 0.48779L27.371 2.59481L25.2394 1.02465L22.4428 0L17.3116 0.196271L9.08232 1.84725L1.99157 3.32794L1.65483 5.96605Z"/><path id="shape14" transform="matrix(4.82064042132547 0 0 4.82064042132547 174.353160075143 145.668384087337)" fill="none" stroke="#0a0a00" stroke-width="1.2" stroke-linecap="square" stroke-linejoin="bevel" d="M0 3.11206C6.00799 3.11206 20.6379 -3.00355 24.8577 1.91134C24.9557 2.0254 25.8673 3.27369 25.3869 3.27369"/><path id="shape15" transform="matrix(4.82064042132547 0 0 4.82064042132547 173.920281058849 314.354125738771)" fill="none" stroke="#0a0a00" stroke-width="1.2" stroke-linecap="square" stroke-linejoin="bevel" d="M25.4125 3.71102C25.4125 6.35302 21.0372 0.155878 18.3988 0.0194056C12.2533 -0.298464 6.14902 3.38687 0 3.88998"/><path id="shape16" transform="matrix(4.82064042132547 0 0 4.82064042132547 173.502862007422 161.087913608416)" fill="none" stroke="#0a0a00" stroke-width="1.2" stroke-linecap="square" stroke-linejoin="miter" stroke-miterlimit="2" d="M0 0L0 36.0994"/><path id="shape17" transform="matrix(4.82064042132547 0 0 4.82064042132547 162.990085897424 174.807086431963)" fill="none" stroke="#0a0a00" stroke-width="1.2" stroke-linecap="square" stroke-linejoin="miter" stroke-miterlimit="2" d="M0 0L0 35.056"/><path id="shape18" transform="matrix(4.82064042132547 0 0 4.82064042132547 147.638340783854 176.560246447954)" fill="none" stroke="#0a0a00" stroke-width="1.2" stroke-linecap="square" stroke-linejoin="miter" stroke-miterlimit="2" d="M0 0L0 38.1487"/><path id="shape19" transform="matrix(4.82064042132547 0 0 4.82064042132547 148.78237818406 362.673487510599)" fill="none" stroke="#0a0a00" stroke-width="1.2" stroke-linecap="square" stroke-linejoin="miter" stroke-miterlimit="2" d="M0 0L28.54 0"/><path id="shape20" transform="matrix(4.82064042132547 0 0 4.82064042132547 287.520102906296 363.563981486975)" fill="none" stroke="#0a0a00" stroke-width="1.2" stroke-linecap="square" stroke-linejoin="miter" stroke-miterlimit="2" d="M0.0160352 0L0 1.32483"/><path id="shape21" transform="matrix(4.82064042132547 0 0 4.82064042132547 296.512982831418 163.787223474307)" fill="none" stroke="#0a0a00" stroke-width="1.2" stroke-linecap="square" stroke-linejoin="miter" stroke-miterlimit="2" d="M0 0L0 35.7632"/><path id="shape22" transform="matrix(4.82064042132547 0 0 4.82064042132547 164.103203367895 345.740187991069)" fill="none" stroke="#0a0a00" stroke-width="1.2" stroke-linecap="square" stroke-linejoin="miter" stroke-miterlimit="2" d="M0 0L27.2153 0"/><path id="shape23" transform="matrix(4.82064042132547 0 0 4.82064042132547 162.448987127057 172.233002281501)" fill="none" stroke="#0a0a00" stroke-width="1.2" stroke-linecap="square" stroke-linejoin="miter" stroke-miterlimit="2" d="M0 0L1.68821 0"/><path id="shape24" transform="matrix(4.82064042132547 0 0 4.82064042132547 149.586296357177 174.292269601871)" fill="none" stroke="#0a0a00" stroke-width="1.2" stroke-linecap="square" stroke-linejoin="miter" stroke-miterlimit="2" d="M0 0L2.19732 0"/><path id="shape02" transform="matrix(-4.87275611070262 0 0 4.82064054581059 420.558027422312 145.748069879595)" fill="none" stroke="#0a0a00" stroke-width="1.2" stroke-linecap="square" stroke-linejoin="bevel" d="M0 3.11206C6.00799 3.11206 20.6379 -3.00355 24.8577 1.91134C24.9557 2.0254 25.8673 3.27369 25.3869 3.27369"/><path id="shape11" transform="matrix(-4.87275611070262 0 0 4.82064054581059 420.99558627082 314.433821555045)" fill="none" stroke="#0a0a00" stroke-width="1.2" stroke-linecap="square" stroke-linejoin="bevel" d="M25.4125 3.71102C25.4125 6.35302 21.0372 0.155878 18.3988 0.0194056C12.2533 -0.298464 6.14902 3.38687 0 3.88998"/><path id="shape21" transform="matrix(-4.87275611070262 0 0 4.82064054581059 421.4175180176 161.167605498579)" fill="none" stroke="#0a0a00" stroke-width="1.2" stroke-linecap="square" stroke-linejoin="miter" stroke-miterlimit="2" d="M0 0L0 36.0994"/><path id="shape3" transform="matrix(-4.87275611070262 0 0 4.82064054581059 432.043947195731 174.886778676401)" fill="none" stroke="#0a0a00" stroke-width="1.2" stroke-linecap="square" stroke-linejoin="miter" stroke-miterlimit="2" d="M0 0L0 35.056"/><path id="shape4" transform="matrix(-4.87275611070262 0 0 4.82064054581059 447.561659216146 176.639938737664)" fill="none" stroke="#0a0a00" stroke-width="1.2" stroke-linecap="square" stroke-linejoin="miter" stroke-miterlimit="2" d="M0 0L0 38.1487"/><path id="shape5" transform="matrix(-4.87275611070262 0 0 4.82064054581059 446.405253687937 362.753184606382)" fill="none" stroke="#0a0a00" stroke-width="1.2" stroke-linecap="square" stroke-linejoin="miter" stroke-miterlimit="2" d="M0 0L28.54 0"/><path id="shape6" transform="matrix(-4.87275611070262 0 0 4.82064054581059 306.167642740101 363.64367860575)" fill="none" stroke="#0a0a00" stroke-width="1.2" stroke-linecap="square" stroke-linejoin="miter" stroke-miterlimit="2" d="M0.0160352 0L0 1.32483"/><path id="shape7" transform="matrix(-4.87275611070262 0 0 4.82064054581059 297.077541264348 163.866915434177)" fill="none" stroke="#0a0a00" stroke-width="1.2" stroke-linecap="square" stroke-linejoin="miter" stroke-miterlimit="2" d="M0 0L0 35.7632"/><path id="shape8" transform="matrix(-4.87275611070262 0 0 4.82064054581059 430.918795870988 345.819884649575)" fill="none" stroke="#0a0a00" stroke-width="1.2" stroke-linecap="square" stroke-linejoin="miter" stroke-miterlimit="2" d="M0 0L27.2153 0"/><path id="shape9" transform="matrix(-4.87275611070262 0 0 4.82064054581059 432.59089575637 172.31269445947)" fill="none" stroke="#0a0a00" stroke-width="1.2" stroke-linecap="square" stroke-linejoin="miter" stroke-miterlimit="2" d="M0 0L1.68821 0"/><path id="shape10" transform="matrix(-4.87275611070262 0 0 4.82064054581059 445.592644397844 174.371961833014)" fill="none" stroke="#0a0a00" stroke-width="1.2" stroke-linecap="square" stroke-linejoin="miter" stroke-miterlimit="2" d="M0 0L2.19732 0"/><path id="shape25" transform="matrix(4.82064042132547 0 0 4.82064042132547 288.85447951276 372.420696196165)" fill="none" stroke="#0d254b" stroke-width="1.2" stroke-linecap="square" stroke-linejoin="miter" stroke-miterlimit="2" d="M0 0L3.80675 0.152976"/><path id="shape26" transform="matrix(4.82064042132547 0 0 4.82064042132547 287.184803307054 369.93061118815)" fill="none" stroke="#0a0a00" stroke-width="1.2" stroke-linecap="square" stroke-linejoin="miter" stroke-miterlimit="2" d="M0 0L3.68011 0"/>
</svg>
